<?xml version="1.0" encoding="UTF-8" ?>
<!DOCTYPE svg PUBLIC "-//W3C//DTD SVG 1.1//EN" "http://www.w3.org/Graphics/SVG/1.1/DTD/svg11.dtd">
<svg width="520pt" height="168pt" viewBox="0 0 520 168" version="1.1" xmlns="http://www.w3.org/2000/svg">
<path fill="#ffffff" d=" M 0.00 0.00 L 520.00 0.00 L 520.00 168.00 L 0.00 168.00 L 0.00 0.00 Z" />
<path fill="#e97927" d=" M 12.12 11.04 C 24.74 10.61 37.37 11.00 50.00 10.82 C 59.90 10.45 70.41 11.47 78.84 17.16 C 86.81 22.19 91.01 31.41 92.58 40.41 C 95.20 53.83 94.44 68.55 87.65 80.66 C 81.63 91.52 69.74 97.98 57.73 99.75 C 48.94 101.39 39.98 100.69 31.10 101.07 C 30.61 120.67 31.02 140.27 30.89 159.87 C 24.83 160.06 18.77 160.04 12.71 159.76 C 12.91 147.17 13.16 134.56 12.11 122.00 C 12.07 85.01 12.04 48.02 12.12 11.04 Z" />
<path fill="#e97927" d=" M 139.59 11.36 C 145.92 10.67 152.31 10.67 158.66 11.18 C 170.20 49.67 181.67 88.18 193.40 126.62 C 196.53 137.72 200.24 148.65 203.15 159.81 C 196.21 160.06 189.26 160.01 182.32 159.85 C 178.39 146.28 174.25 132.78 170.60 119.14 C 155.96 118.81 141.28 118.50 126.65 119.33 C 122.92 132.81 119.63 146.41 115.85 159.88 C 108.84 160.00 101.82 160.04 94.81 159.80 C 109.68 110.30 124.90 60.91 139.59 11.36 Z" />
<path fill="#e97927" d=" M 240.86 17.84 C 251.72 10.63 265.58 9.56 278.14 11.83 C 282.24 12.78 286.94 13.85 289.62 17.39 C 290.62 23.27 289.89 29.30 289.83 35.24 C 280.87 31.99 271.53 28.54 261.82 29.68 C 254.98 30.07 248.16 33.64 244.64 39.64 C 240.24 47.32 238.52 56.16 237.77 64.88 C 236.48 74.88 236.86 84.99 236.94 95.04 C 237.53 105.33 238.61 115.82 242.53 125.44 C 244.87 130.66 248.10 136.13 253.65 138.40 C 265.31 143.77 279.10 141.20 289.99 135.16 C 289.83 141.30 290.61 147.51 289.62 153.60 C 286.29 157.74 280.56 158.67 275.62 159.58 C 263.06 160.93 249.26 159.98 238.73 152.28 C 228.21 145.29 222.70 133.11 219.82 121.21 C 218.09 114.27 217.26 107.13 216.99 99.99 C 216.81 95.03 215.90 90.09 216.22 85.11 C 217.38 72.73 217.13 60.04 221.13 48.11 C 224.41 36.40 230.42 24.66 240.86 17.84 Z" />
<path fill="#e97927" d=" M 326.11 11.06 C 332.35 10.74 338.61 10.74 344.86 11.09 C 345.01 34.42 344.71 57.76 345.00 81.09 C 351.55 73.16 357.07 64.46 363.29 56.28 C 372.98 42.66 382.94 29.23 392.57 15.56 C 394.03 13.72 395.49 11.27 398.10 11.10 C 404.02 10.42 410.00 10.91 415.95 10.94 C 402.97 29.67 390.10 48.47 377.34 67.36 C 372.37 74.34 367.48 81.39 363.09 88.75 C 373.85 103.67 385.08 118.24 395.84 133.15 C 402.67 142.01 409.05 151.20 416.03 159.93 C 410.05 159.82 404.05 160.38 398.09 159.82 C 395.50 159.71 394.05 157.23 392.53 155.48 C 382.79 142.57 372.87 129.78 363.12 116.88 C 356.94 109.31 351.55 101.12 345.08 93.78 C 344.63 115.81 345.01 137.84 344.90 159.87 C 338.62 160.02 332.34 160.04 326.06 159.89 C 326.09 110.28 326.02 60.67 326.11 11.06 Z" />
<path fill="#e97927" d=" M 423.15 11.08 C 445.43 10.56 467.72 10.99 490.00 10.86 C 497.30 10.84 504.60 10.75 511.90 11.03 C 512.13 17.32 512.13 23.62 511.94 29.91 C 500.31 30.02 488.68 29.72 477.05 30.07 C 476.67 73.33 476.99 116.60 476.90 159.86 C 470.62 160.00 464.35 160.03 458.09 159.89 C 457.97 116.61 458.26 73.32 457.95 30.04 C 446.34 29.73 434.73 30.03 423.12 29.89 C 423.07 23.62 423.07 17.35 423.15 11.08 Z" />
<path fill="#ffffff" d=" M 31.04 30.07 C 39.37 29.91 47.71 29.71 56.03 29.97 C 63.42 30.11 70.64 34.79 73.12 41.86 C 76.15 51.10 75.71 61.35 72.45 70.46 C 70.05 77.03 64.11 81.74 57.40 83.33 C 48.77 85.16 39.88 85.39 31.09 84.92 C 30.72 66.64 30.81 48.35 31.04 30.07 Z" />
<path fill="#ffffff" d=" M 148.46 36.86 C 153.72 59.04 160.21 80.91 166.01 102.95 C 154.42 103.26 142.83 103.13 131.25 103.05 C 136.68 80.91 143.97 59.23 148.46 36.86 Z" />
</svg>
